<?xml version="1.0" standalone="no"?>
<!DOCTYPE svg PUBLIC "-//W3C//DTD SVG 20010904//EN"
 "http://www.w3.org/TR/2001/REC-SVG-20010904/DTD/svg10.dtd">
<svg version="1.0" xmlns="http://www.w3.org/2000/svg"
 width="992.000000pt" height="992.000000pt" viewBox="0 0 992.000000 992.000000"
 preserveAspectRatio="xMidYMid meet">
<metadata>
Created by potrace 1.14, written by Peter Selinger 2001-2017
</metadata>
<g transform="translate(0.000000,992.000000) scale(0.100000,-0.100000)"
fill="#000000" stroke="none">
<path d="M3918 7835 c-2 -2 -21 -6 -43 -9 -98 -15 -124 -22 -210 -53 -62 -23
-221 -102 -249 -124 -158 -124 -184 -150 -291 -289 -27 -36 -52 -67 -55 -70
-3 -3 -39 -45 -80 -95 -41 -49 -82 -99 -92 -110 -9 -11 -117 -141 -239 -290
-122 -148 -234 -284 -248 -300 -14 -17 -42 -51 -61 -75 -19 -24 -49 -60 -65
-80 -17 -19 -62 -73 -100 -120 -38 -47 -73 -86 -77 -88 -4 -2 -8 -10 -8 -17 0
-7 -4 -15 -9 -17 -8 -3 -76 -83 -201 -238 -19 -24 -40 -48 -45 -54 -6 -6 -28
-33 -50 -61 -22 -27 -48 -58 -58 -70 -30 -33 -40 -47 -107 -130 -35 -44 -68
-84 -75 -90 -6 -5 -45 -53 -87 -105 -41 -52 -131 -162 -199 -245 -69 -82 -156
-188 -194 -235 -38 -47 -77 -94 -87 -105 -9 -11 -64 -78 -123 -150 -58 -71
-114 -139 -123 -150 -10 -11 -55 -67 -102 -125 -47 -58 -87 -107 -90 -110 -3
-3 -35 -41 -70 -85 -36 -44 -67 -82 -70 -85 -3 -3 -30 -36 -61 -75 -31 -38
-71 -86 -88 -105 -37 -41 -116 -158 -134 -198 -6 -15 -14 -29 -18 -32 -9 -7
-77 -199 -84 -240 -3 -19 -9 -53 -13 -75 -9 -51 -8 -278 1 -329 19 -104 49
-202 88 -285 30 -62 81 -151 104 -178 5 -7 21 -27 35 -45 48 -64 160 -168 236
-219 205 -138 412 -200 653 -194 113 3 142 5 216 20 140 29 285 92 422 186 55
38 212 195 260 260 17 24 40 53 50 64 10 11 49 58 88 105 38 47 76 92 85 102
8 9 38 44 65 78 83 103 494 602 530 644 6 6 35 43 66 81 53 65 80 99 111 135
14 15 89 107 148 180 92 114 252 307 268 325 10 11 34 40 53 65 19 24 41 52
49 60 8 9 31 36 50 60 19 24 51 62 70 85 55 65 89 107 123 152 18 23 37 41 42
40 11 -3 23 -25 158 -292 51 -99 96 -183 100 -186 5 -3 9 -12 11 -20 1 -8 21
-51 44 -96 23 -46 41 -84 40 -86 -2 -2 3 -12 11 -21 8 -9 33 -54 56 -99 23
-45 92 -181 154 -302 62 -121 116 -227 120 -235 5 -8 14 -26 21 -40 23 -42
147 -284 265 -516 61 -122 134 -252 161 -290 95 -134 246 -264 391 -338 29
-14 55 -26 58 -26 3 1 18 -6 33 -14 29 -16 137 -51 187 -61 83 -17 121 -20
255 -19 125 0 160 4 255 28 214 55 399 164 544 320 49 53 51 56 91 106 19 25
40 52 47 60 29 36 137 167 157 190 11 14 41 50 66 80 24 30 52 64 62 75 25 28
48 56 83 101 17 21 37 45 45 54 13 13 68 81 105 128 5 7 17 21 26 30 8 9 33
40 55 67 21 28 47 57 56 66 10 9 18 21 18 27 0 6 3 12 8 14 4 2 28 28 52 58
25 30 50 60 57 68 7 7 29 34 50 60 21 26 40 49 43 52 3 3 23 28 45 55 22 28
48 59 57 70 9 11 56 67 103 125 48 58 97 116 108 130 12 14 51 62 87 105 35
44 69 85 75 91 5 7 24 29 40 49 17 21 45 56 63 79 18 23 43 52 56 66 13 14 52
61 87 105 35 44 98 121 139 171 41 49 89 108 107 130 57 70 88 107 108 130 11
12 29 35 40 50 11 15 25 32 30 38 17 18 81 96 258 312 68 84 129 158 135 165
31 37 96 116 111 134 33 40 278 339 333 408 55 67 157 258 174 322 4 17 9 35
11 40 1 6 10 42 20 80 21 88 24 344 4 425 -28 118 -86 281 -103 288 -5 2 -8 9
-8 14 0 12 -57 105 -77 126 -7 7 -13 17 -13 22 0 8 -147 159 -191 195 -108 91
-343 202 -462 220 -12 2 -33 6 -47 10 -41 11 -291 15 -345 5 -112 -19 -174
-36 -258 -69 -77 -31 -161 -74 -188 -97 -8 -8 -19 -14 -24 -14 -26 0 -227
-193 -292 -282 -17 -24 -40 -52 -50 -63 -10 -11 -59 -69 -108 -130 -49 -60
-92 -112 -95 -115 -4 -4 -49 -59 -110 -133 -8 -10 -24 -29 -35 -41 -11 -12
-31 -37 -45 -56 -14 -18 -35 -44 -47 -56 -13 -13 -23 -27 -23 -33 0 -5 -4 -11
-9 -13 -5 -1 -54 -59 -111 -128 -56 -69 -119 -145 -140 -170 -21 -25 -51 -61
-67 -80 -31 -40 -42 -53 -76 -92 -12 -14 -34 -41 -47 -59 -14 -18 -30 -37 -35
-43 -6 -6 -40 -47 -75 -91 -36 -44 -67 -82 -70 -85 -3 -3 -48 -57 -100 -120
-52 -63 -97 -117 -100 -120 -3 -3 -19 -23 -35 -45 -16 -22 -41 -52 -55 -67
-14 -15 -35 -40 -47 -55 -12 -15 -35 -43 -52 -62 -17 -19 -31 -37 -31 -40 0
-3 -17 -25 -38 -48 -20 -24 -49 -57 -63 -75 -15 -18 -51 -63 -82 -100 l-55
-68 -32 63 c-18 34 -73 143 -123 242 -50 99 -95 183 -100 186 -4 3 -9 12 -11
20 -1 8 -7 23 -13 34 -6 11 -75 146 -154 300 -79 154 -180 352 -225 440 -186
361 -251 489 -339 661 -50 100 -114 213 -141 250 -51 73 -156 183 -213 224
-19 14 -40 31 -47 38 -7 6 -16 12 -19 12 -4 0 -20 9 -35 20 -81 58 -237 120
-377 149 -70 15 -333 27 -345 16z"/>
</g>
</svg>
